<?xml version="1.0" encoding="UTF-8" standalone="no"?><svg xmlns="http://www.w3.org/2000/svg" xmlns:xlink="http://www.w3.org/1999/xlink" contentScriptType="application/ecmascript" contentStyleType="text/css" height="652px" preserveAspectRatio="none" style="width:684px;height:652px;" version="1.1" viewBox="0 0 684 652" width="684px" zoomAndPan="magnify"><defs><filter height="300%" id="fqoop89" width="300%" x="-1" y="-1"><feGaussianBlur result="blurOut" stdDeviation="2.0"/><feColorMatrix in="blurOut" result="blurOut2" type="matrix" values="0 0 0 0 0 0 0 0 0 0 0 0 0 0 0 0 0 0 .4 0"/><feOffset dx="4.0" dy="4.0" in="blurOut2" result="blurOut3"/><feBlend in="SourceGraphic" in2="blurOut3" mode="normal"/></filter></defs><g><rect fill="#FFFFFF" filter="url(#fqoop89)" height="71.2656" style="stroke: #A80036; stroke-width: 1.0;" width="10" x="46.5" y="432.2188"/><rect fill="#FEFECE" filter="url(#fqoop89)" height="30.2969" style="stroke: #A80036; stroke-width: 1.5;" width="129" x="284" y="209.125"/><text fill="#000000" font-family="sans-serif" font-size="14" lengthAdjust="spacingAndGlyphs" textLength="115" x="291" y="229.1201">Resource Server</text><line style="stroke: #A80036; stroke-width: 1.0; stroke-dasharray: 5.0,5.0;" x1="51" x2="51" y1="54.5938" y2="598.0156"/><line style="stroke: #A80036; stroke-width: 1.0; stroke-dasharray: 5.0,5.0;" x1="350" x2="350" y1="241.7734" y2="598.0156"/><line style="stroke: #A80036; stroke-width: 1.0; stroke-dasharray: 5.0,5.0;" x1="580" x2="580" y1="54.5938" y2="598.0156"/><rect fill="#FEFECE" filter="url(#fqoop89)" height="30.2969" style="stroke: #A80036; stroke-width: 1.5;" width="53" x="23" y="19.2969"/><text fill="#000000" font-family="sans-serif" font-size="14" lengthAdjust="spacingAndGlyphs" textLength="39" x="30" y="39.292">Client</text><rect fill="#FEFECE" filter="url(#fqoop89)" height="30.2969" style="stroke: #A80036; stroke-width: 1.5;" width="53" x="23" y="597.0156"/><text fill="#000000" font-family="sans-serif" font-size="14" lengthAdjust="spacingAndGlyphs" textLength="39" x="30" y="617.0107">Client</text><rect fill="#FEFECE" filter="url(#fqoop89)" height="30.2969" style="stroke: #A80036; stroke-width: 1.5;" width="129" x="284" y="597.0156"/><text fill="#000000" font-family="sans-serif" font-size="14" lengthAdjust="spacingAndGlyphs" textLength="115" x="291" y="617.0107">Resource Server</text><rect fill="#FEFECE" filter="url(#fqoop89)" height="46.5938" style="stroke: #A80036; stroke-width: 1.5;" width="153" x="502" y="3"/><text fill="#000000" font-family="sans-serif" font-size="14" lengthAdjust="spacingAndGlyphs" textLength="21" x="568" y="22.9951">AM</text><text fill="#000000" font-family="sans-serif" font-size="14" lengthAdjust="spacingAndGlyphs" textLength="139" x="509" y="39.292">Authorization Server</text><rect fill="#FEFECE" filter="url(#fqoop89)" height="46.5938" style="stroke: #A80036; stroke-width: 1.5;" width="153" x="502" y="597.0156"/><text fill="#000000" font-family="sans-serif" font-size="14" lengthAdjust="spacingAndGlyphs" textLength="21" x="568" y="617.0107">AM</text><text fill="#000000" font-family="sans-serif" font-size="14" lengthAdjust="spacingAndGlyphs" textLength="139" x="509" y="633.3076">Authorization Server</text><rect fill="#FFFFFF" filter="url(#fqoop89)" height="71.2656" style="stroke: #A80036; stroke-width: 1.0;" width="10" x="46.5" y="432.2188"/><rect fill="#EEEEEE" filter="url(#fqoop89)" height="3" style="stroke: #EEEEEE; stroke-width: 1.0;" width="676" x="3" y="85.1602"/><line style="stroke: #000000; stroke-width: 1.0;" x1="3" x2="679" y1="85.1602" y2="85.1602"/><line style="stroke: #000000; stroke-width: 1.0;" x1="3" x2="679" y1="88.1602" y2="88.1602"/><rect fill="#EEEEEE" filter="url(#fqoop89)" height="23.1328" style="stroke: #000000; stroke-width: 2.0;" width="173" x="254.5" y="74.5938"/><text fill="#000000" font-family="sans-serif" font-size="13" font-weight="bold" lengthAdjust="spacingAndGlyphs" textLength="154" x="260.5" y="90.6606">Obtain Access Token</text><polygon fill="#A80036" points="568.5,124.7266,578.5,128.7266,568.5,132.7266,572.5,128.7266" style="stroke: #A80036; stroke-width: 1.0;"/><line style="stroke: #A80036; stroke-width: 1.0;" x1="51.5" x2="574.5" y1="128.7266" y2="128.7266"/><text fill="#000000" font-family="sans-serif" font-size="13" font-weight="bold" lengthAdjust="spacingAndGlyphs" textLength="9" x="58.5" y="123.7935">1</text><text fill="#000000" font-family="sans-serif" font-size="13" lengthAdjust="spacingAndGlyphs" textLength="255" x="71.5" y="123.7935">Request access token and include a JWK</text><polygon fill="#A80036" points="62.5,153.8594,52.5,157.8594,62.5,161.8594,58.5,157.8594" style="stroke: #A80036; stroke-width: 1.0;"/><line style="stroke: #A80036; stroke-width: 1.0;" x1="56.5" x2="579.5" y1="157.8594" y2="157.8594"/><text fill="#000000" font-family="sans-serif" font-size="13" font-weight="bold" lengthAdjust="spacingAndGlyphs" textLength="9" x="68.5" y="152.9263">2</text><text fill="#000000" font-family="sans-serif" font-size="13" lengthAdjust="spacingAndGlyphs" textLength="204" x="81.5" y="152.9263">Return JWT with embedded JWK (</text><text fill="#000000" font-family="sans-serif" font-size="13" font-style="italic" lengthAdjust="spacingAndGlyphs" textLength="78" x="285.5" y="152.9263">client-based</text><text fill="#000000" font-family="sans-serif" font-size="13" lengthAdjust="spacingAndGlyphs" textLength="136" x="363.5" y="152.9263">) or access token ID (</text><text fill="#000000" font-family="sans-serif" font-size="13" font-style="italic" lengthAdjust="spacingAndGlyphs" textLength="69" x="499.5" y="152.9263">CTS-based</text><text fill="#000000" font-family="sans-serif" font-size="13" lengthAdjust="spacingAndGlyphs" textLength="5" x="568.5" y="152.9263">)</text><rect fill="#EEEEEE" filter="url(#fqoop89)" height="3" style="stroke: #EEEEEE; stroke-width: 1.0;" width="676" x="3" y="186.5586"/><line style="stroke: #000000; stroke-width: 1.0;" x1="3" x2="679" y1="186.5586" y2="186.5586"/><line style="stroke: #000000; stroke-width: 1.0;" x1="3" x2="679" y1="189.5586" y2="189.5586"/><rect fill="#EEEEEE" filter="url(#fqoop89)" height="23.1328" style="stroke: #000000; stroke-width: 2.0;" width="157" x="262.5" y="175.9922"/><text fill="#000000" font-family="sans-serif" font-size="13" font-weight="bold" lengthAdjust="spacingAndGlyphs" textLength="138" x="268.5" y="192.0591">Access a Resource</text><polygon fill="#A80036" points="272,226.125,282,230.125,272,234.125,276,230.125" style="stroke: #A80036; stroke-width: 1.0;"/><line style="stroke: #A80036; stroke-width: 1.0;" x1="51.5" x2="278" y1="230.125" y2="230.125"/><text fill="#000000" font-family="sans-serif" font-size="13" font-weight="bold" lengthAdjust="spacingAndGlyphs" textLength="9" x="58.5" y="225.1919">3</text><text fill="#000000" font-family="sans-serif" font-size="13" lengthAdjust="spacingAndGlyphs" textLength="187" x="71.5" y="225.1919">Present JWT / access token ID</text><rect fill="#FEFECE" filter="url(#fqoop89)" height="30.2969" style="stroke: #A80036; stroke-width: 1.5;" width="129" x="284" y="209.125"/><text fill="#000000" font-family="sans-serif" font-size="14" lengthAdjust="spacingAndGlyphs" textLength="115" x="291" y="229.1201">Resource Server</text><rect fill="none" height="61.3984" style="stroke: #000000; stroke-width: 2.0;" width="395" x="274" y="261.4219"/><polygon fill="#EEEEEE" points="274,261.4219,427,261.4219,427,268.4219,417,278.4219,274,278.4219,274,261.4219" style="stroke: #000000; stroke-width: 2.0;"/><text fill="#000000" font-family="sans-serif" font-size="13" font-weight="bold" lengthAdjust="spacingAndGlyphs" textLength="108" x="289" y="274.4888">If CTS-based...</text><polygon fill="#A80036" points="361.5,310.5547,351.5,314.5547,361.5,318.5547,357.5,314.5547" style="stroke: #A80036; stroke-width: 1.0;"/><polygon fill="#A80036" points="568.5,310.5547,578.5,314.5547,568.5,318.5547,572.5,314.5547" style="stroke: #A80036; stroke-width: 1.0;"/><line style="stroke: #A80036; stroke-width: 1.0;" x1="355.5" x2="574.5" y1="314.5547" y2="314.5547"/><text fill="#000000" font-family="sans-serif" font-size="13" font-weight="bold" lengthAdjust="spacingAndGlyphs" textLength="9" x="367.5" y="302.188">4</text><text fill="#000000" font-family="sans-serif" font-size="13" lengthAdjust="spacingAndGlyphs" textLength="112" x="380.5" y="294.6216">Introspect access</text><text fill="#000000" font-family="sans-serif" font-size="13" lengthAdjust="spacingAndGlyphs" textLength="147" x="380.5" y="309.7544">token ID to acquire JWK</text><rect fill="none" height="244.1953" style="stroke: #000000; stroke-width: 2.0;" width="489.5" x="13" y="336.8203"/><polygon fill="#EEEEEE" points="13,336.8203,208,336.8203,208,343.8203,198,353.8203,13,353.8203,13,336.8203" style="stroke: #000000; stroke-width: 2.0;"/><text fill="#000000" font-family="sans-serif" font-size="13" font-weight="bold" lengthAdjust="spacingAndGlyphs" textLength="150" x="28" y="349.8872">Challenge-Response</text><line style="stroke: #5555AA; stroke-width: 1.0; stroke-dasharray: 2.0,2.0;" x1="350.5" x2="392.5" y1="390.2188" y2="390.2188"/><line style="stroke: #5555AA; stroke-width: 1.0; stroke-dasharray: 2.0,2.0;" x1="392.5" x2="392.5" y1="390.2188" y2="403.2188"/><line style="stroke: #5555AA; stroke-width: 1.0; stroke-dasharray: 2.0,2.0;" x1="351.5" x2="392.5" y1="403.2188" y2="403.2188"/><polygon fill="#5555AA" points="361.5,399.2188,351.5,403.2188,361.5,407.2188,357.5,403.2188" style="stroke: #5555AA; stroke-width: 1.0;"/><text fill="#000000" font-family="sans-serif" font-size="13" font-weight="bold" lengthAdjust="spacingAndGlyphs" textLength="9" x="357.5" y="377.5864">5</text><text fill="#000000" font-family="sans-serif" font-size="13" lengthAdjust="spacingAndGlyphs" textLength="120" x="370.5" y="370.02">Create a challenge</text><text fill="#000000" font-family="sans-serif" font-size="13" lengthAdjust="spacingAndGlyphs" textLength="85" x="370.5" y="385.1528">using the JWK</text><polygon fill="#A80036" points="67.5,428.2188,57.5,432.2188,67.5,436.2188,63.5,432.2188" style="stroke: #A80036; stroke-width: 1.0;"/><line style="stroke: #A80036; stroke-width: 1.0;" x1="61.5" x2="349.5" y1="432.2188" y2="432.2188"/><text fill="#000000" font-family="sans-serif" font-size="13" font-weight="bold" lengthAdjust="spacingAndGlyphs" textLength="9" x="73.5" y="427.2856">6</text><text fill="#000000" font-family="sans-serif" font-size="13" lengthAdjust="spacingAndGlyphs" textLength="98" x="86.5" y="427.2856">Issue challenge</text><line style="stroke: #5555AA; stroke-width: 1.0; stroke-dasharray: 2.0,2.0;" x1="56.5" x2="98.5" y1="461.4844" y2="461.4844"/><line style="stroke: #5555AA; stroke-width: 1.0; stroke-dasharray: 2.0,2.0;" x1="98.5" x2="98.5" y1="461.4844" y2="474.4844"/><line style="stroke: #5555AA; stroke-width: 1.0; stroke-dasharray: 2.0,2.0;" x1="57.5" x2="98.5" y1="474.4844" y2="474.4844"/><polygon fill="#5555AA" points="67.5,470.4844,57.5,474.4844,67.5,478.4844,63.5,474.4844" style="stroke: #5555AA; stroke-width: 1.0;"/><text fill="#000000" font-family="sans-serif" font-size="13" font-weight="bold" lengthAdjust="spacingAndGlyphs" textLength="9" x="63.5" y="456.4185">7</text><text fill="#000000" font-family="sans-serif" font-size="13" lengthAdjust="spacingAndGlyphs" textLength="262" x="76.5" y="456.4185">Solve the challenge using the private key</text><polygon fill="#A80036" points="338.5,499.4844,348.5,503.4844,338.5,507.4844,342.5,503.4844" style="stroke: #A80036; stroke-width: 1.0;"/><line style="stroke: #A80036; stroke-width: 1.0;" x1="51.5" x2="344.5" y1="503.4844" y2="503.4844"/><text fill="#000000" font-family="sans-serif" font-size="13" font-weight="bold" lengthAdjust="spacingAndGlyphs" textLength="9" x="58.5" y="498.5513">8</text><text fill="#000000" font-family="sans-serif" font-size="13" lengthAdjust="spacingAndGlyphs" textLength="96" x="71.5" y="498.5513">Issue response</text><polygon fill="#FBFB77" filter="url(#fqoop89)" points="266,516.6172,266,571.6172,430,571.6172,430,526.6172,420,516.6172,266,516.6172" style="stroke: #A80036; stroke-width: 1.0;"/><line style="stroke: #A80036; stroke-width: 1.0;" x1="420" x2="420" y1="516.6172" y2="526.6172"/><line style="stroke: #A80036; stroke-width: 1.0;" x1="430" x2="420" y1="526.6172" y2="526.6172"/><text fill="#000000" font-family="sans-serif" font-size="13" lengthAdjust="spacingAndGlyphs" textLength="143" x="272" y="533.6841">Validate response and</text><text fill="#000000" font-family="sans-serif" font-size="13" lengthAdjust="spacingAndGlyphs" textLength="131" x="272" y="548.8169">allow or deny access</text><text fill="#000000" font-family="sans-serif" font-size="13" lengthAdjust="spacingAndGlyphs" textLength="102" x="272" y="563.9497">to the resource.</text></g></svg>